<svg width="170" height="15" viewBox="0 0 170 15" fill="none" xmlns="http://www.w3.org/2000/svg">
<path d="M0.188 0.95H10.196V3.65H3.266V5.936H9.818V8.654H3.266V11.282H10.196V14H0.188V0.95ZM15.2735 7.358L10.5935 0.95H14.2115L17.0915 4.892L19.9895 0.95H23.5535L18.8555 7.304L23.7695 14H20.1515L17.0375 9.77L13.9235 14H10.3775L15.2735 7.358ZM29.4158 0.95C30.3158 0.95 31.1018 1.016 31.7738 1.148C32.4578 1.268 33.0758 1.484 33.6278 1.796C34.1918 2.096 34.6178 2.534 34.9058 3.11C35.1938 3.674 35.3378 4.37 35.3378 5.198C35.3378 6.026 35.1938 6.728 34.9058 7.304C34.6178 7.88 34.1918 8.324 33.6278 8.636C33.0758 8.948 32.4578 9.17 31.7738 9.302C31.1018 9.422 30.3158 9.482 29.4158 9.482H27.4718V14H24.3938V0.95H29.4158ZM27.4718 3.542V6.89H29.5058C30.3218 6.89 30.9518 6.77 31.3958 6.53C31.8518 6.29 32.0798 5.846 32.0798 5.198C32.0798 4.562 31.8518 4.13 31.3958 3.902C30.9518 3.662 30.3218 3.542 29.5058 3.542H27.4718ZM36.2154 0.95H46.2234V3.65H39.2934V5.936H45.8454V8.654H39.2934V11.282H46.2234V14H36.2154V0.95ZM55.999 14L50.761 5V14H47.791V0.95H51.535L56.773 9.95V0.95H59.743V14H55.999ZM66.3116 3.2C65.6996 3.2 65.2016 3.314 64.8176 3.542C64.4336 3.758 64.2416 4.064 64.2416 4.46C64.2416 4.772 64.3736 5.048 64.6376 5.288C64.9136 5.516 65.2856 5.678 65.7536 5.774L67.5356 6.134C68.0756 6.242 68.5196 6.344 68.8676 6.44C69.2156 6.524 69.6296 6.668 70.1096 6.872C70.5896 7.076 70.9676 7.304 71.2436 7.556C71.5316 7.796 71.7776 8.126 71.9816 8.546C72.1976 8.954 72.3056 9.422 72.3056 9.95C72.3056 11.246 71.7536 12.284 70.6496 13.064C69.5576 13.844 68.2856 14.234 66.8336 14.234C65.1656 14.234 63.8036 13.838 62.7476 13.046C61.7036 12.254 61.0616 11.156 60.8216 9.752H63.8816C64.2176 11.084 65.2256 11.75 66.9056 11.75C67.5176 11.75 68.0396 11.636 68.4716 11.408C68.9156 11.18 69.1376 10.82 69.1376 10.328C69.1376 9.932 68.9276 9.614 68.5076 9.374C68.0996 9.134 67.4996 8.93 66.7076 8.762L65.1236 8.438C62.4236 7.862 61.0736 6.596 61.0736 4.64C61.0736 3.8 61.3496 3.074 61.9016 2.462C62.4656 1.85 63.1436 1.412 63.9356 1.148C64.7396 0.871999 65.5916 0.733999 66.4916 0.733999C67.8836 0.733999 69.0836 1.064 70.0916 1.724C71.0996 2.372 71.7116 3.374 71.9276 4.73H68.8856C68.7296 4.25 68.4236 3.878 67.9676 3.614C67.5236 3.338 66.9716 3.2 66.3116 3.2ZM73.4909 0.95H83.4989V3.65H76.5689V5.936H83.1209V8.654H76.5689V11.282H83.4989V14H73.4909V0.95ZM88.1444 3.65H83.9684V0.95H95.4344V3.65H91.2404V14H88.1444V3.65ZM101.527 9.086H99.4387V14H96.3607V0.95H101.383C102.103 0.95 102.745 0.985999 103.309 1.058C103.873 1.13 104.407 1.256 104.911 1.436C105.427 1.616 105.853 1.856 106.189 2.156C106.537 2.456 106.807 2.846 106.999 3.326C107.203 3.794 107.305 4.346 107.305 4.982C107.305 6.722 106.453 7.922 104.749 8.582L107.971 14H104.353L101.527 9.086ZM99.4387 3.542V6.494H101.473C102.301 6.494 102.937 6.392 103.381 6.188C103.825 5.972 104.047 5.582 104.047 5.018C104.047 4.454 103.819 4.07 103.363 3.866C102.919 3.65 102.289 3.542 101.473 3.542H99.4387ZM112.522 0.95H115.906L120.838 14H117.49L116.698 11.678H111.658L110.884 14H107.608L112.522 0.95ZM112.504 9.176H115.87L114.196 4.208L112.504 9.176ZM133.028 9.14C132.788 10.664 132.104 11.894 130.976 12.83C129.848 13.766 128.462 14.234 126.818 14.234C124.79 14.234 123.194 13.628 122.03 12.416C120.866 11.204 120.284 9.554 120.284 7.466C120.284 5.402 120.878 3.764 122.066 2.552C123.266 1.34 124.88 0.733999 126.908 0.733999C128.516 0.733999 129.866 1.208 130.958 2.156C132.05 3.092 132.71 4.316 132.938 5.828H129.914C129.746 4.976 129.38 4.34 128.816 3.92C128.252 3.488 127.58 3.272 126.8 3.272C125.852 3.272 125.072 3.65 124.46 4.406C123.848 5.15 123.542 6.17 123.542 7.466C123.542 8.798 123.848 9.836 124.46 10.58C125.072 11.324 125.864 11.696 126.836 11.696C127.604 11.696 128.282 11.498 128.87 11.102C129.458 10.706 129.836 10.052 130.004 9.14H133.028ZM137.294 6.116L142.028 0.95H145.79L140.966 6.152L146.042 14H142.334L138.806 8.492L137.294 10.148V14H134.216V0.95H137.294V6.116ZM146.688 0.95H156.696V3.65H149.766V5.936H156.318V8.654H149.766V11.282H156.696V14H146.688V0.95ZM163.43 9.086H161.342V14H158.264V0.95H163.286C164.006 0.95 164.648 0.985999 165.212 1.058C165.776 1.13 166.31 1.256 166.814 1.436C167.33 1.616 167.756 1.856 168.092 2.156C168.44 2.456 168.71 2.846 168.902 3.326C169.106 3.794 169.208 4.346 169.208 4.982C169.208 6.722 168.356 7.922 166.652 8.582L169.874 14H166.256L163.43 9.086ZM161.342 3.542V6.494H163.376C164.204 6.494 164.84 6.392 165.284 6.188C165.728 5.972 165.95 5.582 165.95 5.018C165.95 4.454 165.722 4.07 165.266 3.866C164.822 3.65 164.192 3.542 163.376 3.542H161.342Z" fill="#FAFAFA"/>
</svg>
